<svg xmlns="http://www.w3.org/2000/svg" viewBox="0 0 340 80">
  <g id="estudjo_e">
    <path d="M 41.4601 0.00827335 C 33.3693 0.170763 25.1976 3.07165 18.2275 8.25438 C 13.3538 11.876 9.14188 16.5453 6.06139 21.749 L 5.75931 22.2584 L 5.73525 19.5788 C 5.7189 17.3299 5.70254 16.8673 5.65059 16.6919 C 5.3437 15.6611 4.69143 14.9185 3.81019 14.6015 C 2.42868 14.104 0.898052 14.7759 0.27849 16.1576 C -0.0197467 16.8165 0.0004564 16.1954 0.0004564 24.286 C 0.0004564 32.4404 -0.0235949 31.7725 0.302541 32.4654 C 0.669083 33.2539 1.3329 33.8211 2.15449 34.0594 C 2.40078 34.1301 2.6259 34.1341 5.81895 34.1172 C 7.69207 34.1092 10.7081 34.0883 12.5245 34.0713 C 15.7666 34.0424 15.831 34.0384 16.1293 33.9507 C 16.9345 33.7045 17.5743 33.1492 17.9408 32.3816 C 18.1505 31.939 18.2314 31.5682 18.2275 31.0259 C 18.2227 29.6113 17.3251 28.438 15.9879 28.0961 C 15.8349 28.0542 15.0258 28.0462 12.5283 28.0582 C 10.6764 28.0672 9.2785 28.0582 9.28715 28.0373 C 9.48822 27.5657 10.3502 25.9428 10.8736 25.0586 C 14.1917 19.4163 18.9596 14.5546 24.4453 11.2171 C 30.0829 7.78685 36.1121 6.03435 42.2856 6.02937 C 48.713 6.02937 54.9067 7.74498 60.3876 11.0496 C 67.6039 15.398 73.2781 22.375 76.6164 31.0049 C 76.9753 31.9231 77.1003 32.1852 77.3293 32.4983 C 77.7084 33.0077 78.3279 33.4124 78.9408 33.5539 C 79.3794 33.6546 80.0798 33.6167 80.4752 33.4752 C 81.4209 33.1283 82.1175 32.3358 82.3551 31.3389 C 82.4522 30.9421 82.4484 30.2663 82.3435 29.8775 C 82.0896 28.9185 80.7321 25.7764 79.7181 23.7856 C 76.6568 17.7934 72.2959 12.4811 67.1729 8.50858 C 59.8276 2.80848 50.7824 -0.179138 41.4601 0.00827335 Z" fill="#E17100"/>
    <path d="M 40.9762 79.9702 C 49.0661 79.8077 57.2378 76.9068 64.2088 71.7241 C 69.0816 68.1025 73.2935 63.4331 76.375 58.2295 L 76.6761 57.7201 L 76.7011 60.3987 C 76.7165 62.6486 76.7328 63.1111 76.7858 63.2866 C 77.0917 64.3174 77.744 65.06 78.6262 65.377 C 80.0067 65.8735 81.5373 65.2026 82.1579 63.8209 C 82.4551 63.162 82.4349 63.783 82.4349 55.6924 C 82.4349 47.538 82.4599 48.2059 82.1338 47.5131 C 81.7673 46.7246 81.1025 46.1574 80.2809 45.9191 C 80.0356 45.8483 79.8095 45.8444 76.6164 45.8603 C 74.7433 45.8693 71.7273 45.8902 69.9109 45.9062 C 66.6688 45.9361 66.6043 45.9401 66.3071 46.0278 C 65.5009 46.274 64.8611 46.8293 64.4946 47.5969 C 64.2848 48.0395 64.204 48.4103 64.2088 48.9526 C 64.2127 50.3672 65.1103 51.5405 66.4475 51.8824 C 66.6005 51.9243 67.4105 51.9322 69.9071 51.9193 C 71.759 51.9113 73.1569 51.9193 73.1492 51.9402 C 72.9472 52.4117 72.0852 54.0356 71.5618 54.9199 C 68.2437 60.5621 63.4758 65.4229 57.9901 68.7614 C 52.3525 72.1916 46.3243 73.9441 40.1498 73.9481 C 33.7233 73.9481 27.5296 72.2335 22.0478 68.9289 C 14.8315 64.5805 9.15728 57.6034 5.81895 48.9735 C 5.46011 48.0554 5.33504 47.7932 5.10607 47.4802 C 4.72702 46.9708 4.10746 46.5661 3.49463 46.4245 C 3.05594 46.3239 2.35556 46.3617 1.96112 46.5033 C 1.01446 46.8502 0.317934 47.6427 0.0803068 48.6396 C -0.0168606 49.0363 -0.0130123 49.7122 0.0918514 50.1 C 0.345833 51.06 1.70329 54.2021 2.71826 56.1929 C 5.77855 62.185 10.1395 67.4974 15.2625 71.4699 C 22.6077 77.17 31.653 80.1576 40.9762 79.9702 Z" fill="#FFB900"/>
  </g>
  <g fill="#1c2742" id="estudjo_studjo">
    <path d="M 42.3084 63.5895 C 38.3574 63.5895 34.9723 63.0258 32.1532 61.8982 C 29.3356 60.7692 27.0265 59.2013 25.2242 57.1943 C 23.422 55.1859 22.1009 52.8619 21.2581 50.2207 C 20.4152 47.581 19.9945 44.6932 19.9945 41.5573 C 19.9945 38.4213 20.4152 35.4513 21.2581 32.6457 C 22.1009 29.8401 23.4084 27.3502 25.1803 25.1773 C 26.9523 23.0045 29.1904 21.2985 31.8914 20.0609 C 34.594 18.8232 37.8051 18.2052 41.523 18.2052 C 45.0685 18.2052 48.163 18.7821 50.8066 19.9376 C 53.4502 21.093 55.599 22.7285 57.2559 24.847 C 58.9129 26.9655 60.0448 29.4687 60.6546 32.3565 C 61.2644 35.2443 61.3371 38.4213 60.8725 41.8876 L 26.8797 42.3824 L 26.8797 36.1927 L 52.5922 35.7802 L 50.7627 39.3286 C 50.9943 36.6875 50.8051 34.4324 50.1953 32.562 C 49.5854 30.6916 48.5686 29.2484 47.1446 28.231 C 45.7207 27.2136 43.8473 26.7042 41.523 26.7042 C 39.0247 26.7042 36.9758 27.309 35.3779 28.5188 C 33.7799 29.73 32.6042 31.4081 31.8491 33.553 C 31.094 35.698 30.7157 38.229 30.7157 41.1447 C 30.7157 45.9308 31.7038 49.5204 33.6785 51.9135 C 35.6548 54.3065 38.5889 55.5031 42.4824 55.5031 C 44.3422 55.5031 45.8811 55.2549 47.1023 54.7602 C 48.3219 54.2654 49.2949 53.5769 50.0213 52.6975 C 50.7476 51.8166 51.2409 50.8403 51.5027 49.7671 C 51.7645 48.6939 51.8674 47.6074 51.8084 46.5078 L 62.0059 47.0863 C 62.1224 49.1754 61.8319 51.197 61.1343 53.1511 C 60.4367 55.1037 59.3048 56.864 57.7356 58.432 C 56.1664 59.9999 54.1039 61.2508 51.5466 62.186 C 48.9908 63.1212 45.9114 63.5895 42.3084 63.5895 Z"/>
    <path d="M 113.177 63.5895 C 110.214 63.5895 107.469 63.3003 104.94 62.7233 C 102.412 62.1463 100.219 61.2244 98.3594 59.9588 C 96.4996 58.6933 95.0908 57.002 94.133 54.8835 C 93.1736 52.765 92.8104 50.2207 93.0434 47.2507 L 102.805 46.4256 C 102.805 48.6806 103.241 50.4967 104.113 51.8724 C 104.984 53.248 106.219 54.2375 107.817 54.8424 C 109.415 55.4473 111.319 55.7497 113.526 55.7497 C 116.141 55.7497 118.248 55.3372 119.845 54.5121 C 121.443 53.687 122.242 52.4493 122.242 50.7992 C 122.242 49.6437 121.879 48.7364 121.153 48.0758 C 120.427 47.4166 119.293 46.866 117.753 46.4256 C 116.214 45.9852 114.253 45.5168 111.869 45.0221 C 109.197 44.4172 106.727 43.8123 104.461 43.2074 C 102.195 42.6026 100.219 41.8318 98.5334 40.8966 C 96.8492 39.9614 95.5554 38.7649 94.655 37.307 C 93.7547 35.8492 93.3037 34.0213 93.3037 31.8206 C 93.3037 29.015 94.1027 26.5941 95.7006 24.5578 C 97.2986 22.5229 99.5064 20.955 102.325 19.8553 C 105.145 18.7557 108.442 18.2052 112.219 18.2052 C 115.646 18.2052 118.829 18.7278 121.763 19.7717 C 124.697 20.817 127.008 22.495 128.692 24.8059 C 130.376 27.1167 131.045 30.1425 130.697 33.8833 L 121.109 34.8729 C 121.283 32.9481 120.979 31.3244 120.194 30.0045 C 119.408 28.6847 118.276 27.7084 116.795 27.0756 C 115.313 26.4428 113.584 26.1257 111.608 26.1257 C 109.167 26.1257 107.236 26.5794 105.812 27.4882 C 104.388 28.3955 103.677 29.592 103.677 31.0777 C 103.677 32.2875 104.113 33.2638 104.984 34.0067 C 105.856 34.7495 107.119 35.3265 108.775 35.7391 C 110.432 36.1516 112.422 36.6067 114.746 37.1015 C 116.721 37.4318 118.77 37.8708 120.891 38.4213 C 123.011 38.9719 124.972 39.728 126.774 40.6911 C 128.575 41.6527 130.028 42.9314 131.133 44.5273 C 132.236 46.1232 132.788 48.158 132.788 50.6347 C 132.788 53.2744 132.018 55.5574 130.479 57.4836 C 128.938 59.4083 126.715 60.9072 123.81 61.9805 C 120.905 63.0537 117.361 63.5895 113.177 63.5895 Z"/>
    <path d="M 156.471 63.3414 C 151.764 63.3414 148.205 62.1449 145.794 59.7518 C 143.382 57.3588 142.176 53.7413 142.176 48.9009 L 142.176 27.6937 L 136.86 27.6937 L 136.86 20.6804 L 138.167 20.6804 C 140.956 20.4059 142.946 19.5661 144.137 18.1626 C 145.328 16.7605 146.041 14.6567 146.272 11.8511 L 146.448 9.78689 L 153.159 9.78689 L 153.159 19.3591 L 164.316 19.3591 L 164.316 27.9418 L 153.159 27.9418 L 153.159 48.0758 C 153.159 50.2207 153.682 51.7623 154.728 52.6975 C 155.774 53.6327 157.167 54.0995 158.911 54.0995 C 159.782 54.0995 160.713 53.9762 161.701 53.7281 C 162.689 53.48 163.561 53.1085 164.316 52.6138 L 164.316 62.1038 C 162.804 62.5442 161.41 62.8613 160.132 63.0537 C 158.853 63.246 157.633 63.3414 156.471 63.3414 Z"/>
    <path d="M 186.714 63.5895 C 181.542 63.5895 177.75 61.8571 175.34 58.3909 C 172.928 54.9246 171.721 49.5615 171.721 42.3001 L 171.721 19.3591 L 182.792 19.3591 L 182.792 42.2165 C 182.792 46.5636 183.387 49.6584 184.578 51.5009 C 185.769 53.3434 187.644 54.2654 190.201 54.2654 C 191.885 54.2654 193.382 53.8808 194.689 53.11 C 195.996 52.3392 197.13 51.1706 198.088 49.6026 C 199.047 48.0347 199.773 46.013 200.267 43.5378 C 200.762 41.0625 201.008 38.0925 201.008 34.6262 L 201.008 19.3591 L 212.077 19.3591 L 212.077 41.7217 L 212.077 62.4341 L 202.403 62.4341 L 203.013 44.8576 L 202.403 44.8576 C 201.939 49.2033 201.067 52.7518 199.789 55.5031 C 198.51 58.2529 196.795 60.2892 194.645 61.609 C 192.495 62.9289 189.851 63.5895 186.714 63.5895 Z"/>
    <path d="M 239.297 63.5895 C 236.044 63.5895 233.081 62.7644 230.407 61.1143 C 227.733 59.4626 225.598 56.9462 224 53.5636 C 222.402 50.1796 221.603 45.8471 221.603 40.5663 C 221.603 35.6157 222.329 31.4903 223.782 28.1885 C 225.235 24.8881 227.269 22.3996 229.883 20.7215 C 232.498 19.0435 235.52 18.2052 238.949 18.2052 C 241.795 18.2052 244.28 18.7821 246.402 19.9376 C 248.522 21.093 250.251 22.8797 251.587 25.3006 C 252.924 27.7216 253.854 30.7738 254.376 34.4603 L 255.16 34.4603 C 254.87 32.2053 254.579 30.1146 254.288 28.1885 C 253.998 26.2637 253.795 24.4623 253.679 22.7843 C 253.562 21.1062 253.505 19.525 253.505 18.0393 L 253.505 5.49701 L 264.574 5.49701 L 264.488 45.3524 L 264.574 62.4341 L 254.724 62.4341 L 255.16 48.4061 L 254.464 48.4061 C 253.766 51.8166 252.75 54.6369 251.413 56.864 C 250.077 59.0912 248.407 60.7692 246.402 61.8982 C 244.397 63.0258 242.028 63.5895 239.297 63.5895 Z M 242.61 55.0068 C 244.353 55.0068 245.893 54.6222 247.229 53.8529 C 248.566 53.0821 249.699 52.0368 250.628 50.7169 C 251.559 49.3971 252.27 47.9246 252.763 46.3023 C 253.258 44.68 253.505 43.0151 253.505 41.3092 L 253.505 40.7322 C 253.505 39.4666 253.344 38.1732 253.025 36.8534 C 252.706 35.5335 252.255 34.2959 251.674 33.1405 C 251.093 31.985 250.366 30.9529 249.495 30.0456 C 248.623 29.1383 247.621 28.4234 246.488 27.9007 C 245.354 27.378 244.091 27.1167 242.697 27.1167 C 240.664 27.1167 238.892 27.7216 237.38 28.9313 C 235.868 30.1425 234.736 31.8059 233.981 33.9244 C 233.226 36.043 232.848 38.4771 232.848 41.2269 C 232.848 43.8681 233.226 46.2333 233.981 48.3239 C 234.736 50.4145 235.839 52.0515 237.292 53.2333 C 238.745 54.4152 240.517 55.0068 242.61 55.0068 Z"/>
    <path d="M 273.924 75.2245 C 273.111 75.2245 272.253 75.1555 271.353 75.0175 C 270.453 74.8809 269.508 74.7297 268.52 74.5638 L 267.649 65.4878 C 270.554 65.9826 272.645 65.8578 273.924 65.1164 C 275.203 64.3735 275.841 62.6264 275.841 59.8766 L 275.841 19.3591 L 286.91 19.3591 L 286.91 59.7929 C 286.91 62.5442 286.606 64.8829 285.996 66.8077 C 285.387 68.7324 284.5 70.3282 283.338 71.5938 C 282.176 72.8593 280.795 73.7813 279.198 74.3583 C 277.6 74.9352 275.841 75.2245 273.924 75.2245 Z M 281.333 15.0692 C 279.125 15.0692 277.454 14.6288 276.321 13.7479 C 275.187 12.8685 274.622 11.603 274.622 9.95279 C 274.622 8.24829 275.203 6.95486 276.365 6.07398 C 277.527 5.19457 279.182 4.75413 281.333 4.75413 C 283.54 4.75413 285.211 5.20779 286.344 6.11509 C 287.478 7.02387 288.044 8.30261 288.044 9.95279 C 288.044 11.603 287.478 12.8685 286.344 13.7479 C 285.211 14.6288 283.54 15.0692 281.333 15.0692 Z"/>
    <path d="M 317.86 63.5895 C 313.619 63.5895 309.826 62.7512 306.485 61.0731 C 303.144 59.3951 300.516 56.8772 298.598 53.5225 C 296.681 50.1664 295.722 45.9573 295.722 40.8966 C 295.722 35.7802 296.695 31.5446 298.641 28.1885 C 300.588 24.8338 303.232 22.3306 306.573 20.6804 C 309.914 19.0302 313.676 18.2052 317.86 18.2052 C 322.218 18.2052 326.053 19.0435 329.365 20.7215 C 332.678 22.3996 335.279 24.9292 337.167 28.3132 C 339.056 31.6958 340 35.9182 340 40.9788 C 340 46.1511 339.027 50.3998 337.079 53.7281 C 335.132 57.0563 332.488 59.5331 329.147 61.1554 C 325.806 62.7776 322.044 63.5895 317.86 63.5895 Z M 318.122 55.5031 C 320.387 55.5031 322.306 54.9672 323.875 53.894 C 325.444 52.8208 326.664 51.2264 327.536 49.1079 C 328.407 46.9894 328.843 44.473 328.843 41.5573 C 328.843 38.4213 328.392 35.7537 327.492 33.553 C 326.591 31.3523 325.298 29.6478 323.613 28.4366 C 321.928 27.2268 319.923 26.622 317.598 26.622 C 315.391 26.622 313.488 27.1857 311.891 28.3132 C 310.293 29.4408 309.058 31.0631 308.186 33.1816 C 307.315 35.3001 306.879 37.8444 306.879 40.8144 C 306.879 45.4346 307.867 49.0389 309.842 51.6242 C 311.816 54.2096 314.576 55.5031 318.122 55.5031 Z"/>
  </g>
</svg>